<svg xmlns="http://www.w3.org/2000/svg" viewBox="0 0 1200 300" width="1200" height="300" preserveAspectRatio="none" role="img" aria-label="Generated SVG wave">
<path d="M 0 300 L 0 195 L 1 195.21991003879455 L 2 195.43981139591733 L 3 195.65969539003927 L 4 195.87955334051682 L 5 196.09937656773448 L 6 196.3191563934477 L 7 196.53888414112527 L 8 196.75855113629194 L 9 196.97814870687085 L 10 197.19766818352596 L 11 197.41710090000421 L 12 197.63643819347766 L 13 197.85567140488553 L 14 198.074791879276 L 15 198.293790966148 L 16 198.51266001979252 L 17 198.7313903996341 L 18 198.94997347057185 L 19 199.16840060332044 L 20 199.38666317475065 L 21 199.60475256822988 L 22 199.82266017396233 L 23 200.04037738932882 L 24 200.2578956192265 L 25 200.47520627640807 L 26 200.69230078182093 L 27 200.9091705649457 L 28 201.12580706413468 L 29 201.3422017269498 L 30 201.55834601050037 L 31 201.7742313817801 L 32 201.98984931800425 L 33 202.20519130694584 L 34 202.42024884727192 L 35 202.635013448879 L 36 202.84947663322833 L 37 203.06362993368066 L 38 203.27746489583038 L 39 203.49097307783927 L 40 203.7041460507699 L 41 203.91697539891837 L 42 204.1294527201464 L 43 204.34156962621316 L 44 204.5533177431064 L 45 204.76468871137303 L 46 204.97567418644917 L 47 205.18626583898953 L 48 205.39645535519622 L 49 205.6062344371471 L 50 205.81559480312316 L 51 206.02452818793566 L 52 206.23302634325233 L 53 206.441081037923 L 54 206.64868405830453 L 55 206.8558272085852 L 56 207.0625023111081 L 57 207.26870120669406 L 58 207.4744157549638 L 59 207.6796378346591 L 60 207.88435934396372 L 61 208.08857220082302 L 62 208.29226834326303 L 63 208.4954397297089 L 64 208.69807833930207 L 65 208.90017617221733 L 66 209.1017252499782 L 67 209.30271761577222 L 68 209.50314533476495 L 69 209.70300049441323 L 70 209.90227520477754 L 71 210.10096159883358 L 72 210.29905183278265 L 73 210.49653808636154 L 74 210.69341256315113 L 75 210.88966749088414 L 76 211.08529512175207 L 77 211.28028773271103 L 78 211.47463762578664 L 79 211.66833712837786 L 80 211.86137859356003 L 81 212.05375440038662 L 82 212.24545695419022 L 83 212.43647868688217 L 84 212.62681205725164 L 85 212.816449551263 L 86 213.00538368235271 L 87 213.19360699172483 L 88 213.38111204864535 L 89 213.5678914507357 L 90 213.75393782426488 L 91 213.93924382444067 L 92 214.1238021356994 L 93 214.30760547199506 L 94 214.49064657708658 L 95 214.67291822482457 L 96 214.85441321943648 L 97 215.03512439581067 L 98 215.21504461977935 L 99 215.39416678840016 L 100 215.57248383023656 L 101 215.74998870563707 L 102 215.92667440701317 L 103 216.10253395911587 L 104 216.2775604193112 L 105 216.4517468778542 L 106 216.6250864581617 L 107 216.79757231708393 L 108 216.96919764517452 L 109 217.13995566695937 L 110 217.30983964120415 L 111 217.47884286118045 L 112 217.64695865493056 L 113 217.81418038553076 L 114 217.9805014513535 L 115 218.1459152863278 L 116 218.31041536019882 L 117 218.4739951787852 L 118 218.63664828423586 L 119 218.7983682552847 L 120 218.9591487075041 L 121 219.1189832935572 L 122 219.27786570344819 L 123 219.43578966477153 L 124 219.59274894295973 L 125 219.74873734152916 L 126 219.90374870232498 L 127 220.0577769057641 L 128 220.21081587107673 L 129 220.36285955654662 L 130 220.5139019597494 L 131 220.6639371177896 L 132 220.81295910753607 L 133 220.96096204585587 L 134 221.10794008984638 L 135 221.25388743706608 L 136 221.39879832576364 L 137 221.54266703510527 L 138 221.68548788540068 L 139 221.82725523832724 L 140 221.96796349715262 L 141 222.1076071069557 L 142 222.2461805548458 L 143 222.38367837018058 L 144 222.52009512478168 L 145 222.65542543314916 L 146 222.78966395267423 L 147 222.92280538384998 L 148 223.05484447048067 L 149 223.18577599988927 L 150 223.31559480312316 L 151 223.4442957551583 L 152 223.57187377510144 L 153 223.69832382639083 L 154 223.82364091699498 L 155 223.94782009960966 L 156 224.07085647185343 L 157 224.192745176461 L 158 224.31348140147497 L 159 224.4330603804359 L 160 224.55147739257052 L 161 224.6687277629779 L 162 224.7848068628142 L 163 224.89971010947534 L 164 225.01343296677783 L 165 225.12597094513802 L 166 225.23731960174922 L 167 225.34747454075716 L 168 225.4564314134334 L 169 225.56418591834722 L 170 225.67073380153522 L 171 225.77607085666946 L 172 225.88019292522335 L 173 225.98309589663594 L 174 226.08477570847407 L 175 226.18522834659288 L 176 226.28444984529423 L 177 226.38243628748324 L 178 226.47918380482298 L 179 226.5746885778871 L 180 226.66894683631068 L 181 226.7619548589391 L 182 226.85370897397485 L 183 226.9442055591226 L 184 227.03344104173212 L 185 227.12141189893936 L 186 227.20811465780545 L 187 227.29354589545403 L 188 227.37770223920603 L 189 227.46058036671315 L 190 227.5421770060888 L 191 227.62248893603737 L 192 227.70151298598142 L 193 227.77924603618675 L 194 227.8556850178856 L 195 227.93082691339788 L 196 228.00466875625025 L 197 228.07720763129316 L 198 228.14844067481604 L 199 228.2183650746603 L 200 228.28697807033038 L 201 228.35427695310267 L 202 228.4202590661325 L 203 228.48492180455906 L 204 228.54826261560817 L 205 228.610278998693 L 206 228.670968505513 L 207 228.73032874015036 L 208 228.7883573591646 L 209 228.84505207168522 L 210 228.90041063950207 L 211 228.9544308771537 L 212 229.00711065201358 L 213 229.05844788437443 L 214 229.1084405475302 L 215 229.15708666785616 L 216 229.20438432488677 L 217 229.25033165139152 L 218 229.29492683344864 L 219 229.33816811051668 L 220 229.3800537755041 L 221 229.42058217483654 L 222 229.4597517085222 L 223 229.49756083021492 L 224 229.5340080472754 L 225 229.5690919208298 L 226 229.60281106582698 L 227 229.6351641510928 L 228 229.6661498993828 L 229 229.69576708743273 L 230 229.72401454600674 L 231 229.75089115994348 L 232 229.7763958682003 L 233 229.80052766389497 L 234 229.82328559434552 L 235 229.8446687611078 L 236 229.86467632001103 L 237 229.88330748119105 L 238 229.90056150912147 L 239 229.91643772264288 L 240 229.9309354949895 L 241 229.94405425381413 L 242 229.9557934812106 L 243 229.96615271373437 L 244 229.97513154242063 L 245 229.9827296128006 L 246 229.9889466249155 L 247 229.9937823333283 L 248 229.99723654713355 L 249 229.9993091299648 L 250 230 L 251 229.9993091299648 L 252 229.99723654713355 L 253 229.9937823333283 L 254 229.9889466249155 L 255 229.9827296128006 L 256 229.97513154242063 L 257 229.96615271373437 L 258 229.9557934812106 L 259 229.94405425381413 L 260 229.9309354949895 L 261 229.91643772264288 L 262 229.90056150912147 L 263 229.88330748119105 L 264 229.86467632001103 L 265 229.8446687611078 L 266 229.82328559434552 L 267 229.80052766389497 L 268 229.7763958682003 L 269 229.75089115994348 L 270 229.7240145460067 L 271 229.69576708743273 L 272 229.6661498993828 L 273 229.6351641510928 L 274 229.60281106582698 L 275 229.5690919208298 L 276 229.5340080472754 L 277 229.49756083021492 L 278 229.4597517085222 L 279 229.42058217483654 L 280 229.3800537755041 L 281 229.33816811051668 L 282 229.29492683344864 L 283 229.25033165139152 L 284 229.20438432488677 L 285 229.15708666785616 L 286 229.1084405475302 L 287 229.05844788437443 L 288 229.00711065201358 L 289 228.9544308771537 L 290 228.90041063950207 L 291 228.84505207168522 L 292 228.7883573591646 L 293 228.73032874015036 L 294 228.670968505513 L 295 228.610278998693 L 296 228.54826261560817 L 297 228.48492180455906 L 298 228.4202590661325 L 299 228.35427695310267 L 300 228.28697807033038 L 301 228.2183650746603 L 302 228.14844067481604 L 303 228.07720763129316 L 304 228.00466875625025 L 305 227.93082691339788 L 306 227.8556850178856 L 307 227.77924603618672 L 308 227.70151298598142 L 309 227.62248893603737 L 310 227.5421770060888 L 311 227.46058036671315 L 312 227.37770223920603 L 313 227.29354589545403 L 314 227.20811465780545 L 315 227.12141189893936 L 316 227.03344104173212 L 317 226.9442055591226 L 318 226.85370897397485 L 319 226.76195485893908 L 320 226.66894683631068 L 321 226.5746885778871 L 322 226.47918380482298 L 323 226.38243628748324 L 324 226.28444984529423 L 325 226.18522834659288 L 326 226.08477570847407 L 327 225.98309589663594 L 328 225.88019292522335 L 329 225.77607085666946 L 330 225.67073380153522 L 331 225.5641859183472 L 332 225.4564314134334 L 333 225.34747454075716 L 334 225.23731960174925 L 335 225.12597094513802 L 336 225.01343296677783 L 337 224.89971010947534 L 338 224.7848068628142 L 339 224.6687277629779 L 340 224.55147739257052 L 341 224.4330603804359 L 342 224.31348140147497 L 343 224.192745176461 L 344 224.07085647185343 L 345 223.94782009960966 L 346 223.82364091699495 L 347 223.69832382639083 L 348 223.57187377510144 L 349 223.4442957551583 L 350 223.31559480312316 L 351 223.18577599988927 L 352 223.05484447048067 L 353 222.92280538384998 L 354 222.78966395267423 L 355 222.65542543314916 L 356 222.52009512478165 L 357 222.38367837018058 L 358 222.2461805548458 L 359 222.1076071069557 L 360 221.96796349715262 L 361 221.82725523832724 L 362 221.68548788540068 L 363 221.54266703510527 L 364 221.39879832576364 L 365 221.25388743706608 L 366 221.10794008984638 L 367 220.96096204585587 L 368 220.81295910753607 L 369 220.6639371177896 L 370 220.5139019597494 L 371 220.36285955654662 L 372 220.21081587107673 L 373 220.0577769057641 L 374 219.903748702325 L 375 219.74873734152916 L 376 219.59274894295973 L 377 219.43578966477153 L 378 219.27786570344819 L 379 219.1189832935572 L 380 218.95914870750408 L 381 218.79836825528466 L 382 218.63664828423586 L 383 218.4739951787852 L 384 218.31041536019882 L 385 218.1459152863278 L 386 217.98050145135346 L 387 217.81418038553076 L 388 217.64695865493056 L 389 217.47884286118045 L 390 217.30983964120412 L 391 217.13995566695937 L 392 216.96919764517452 L 393 216.79757231708393 L 394 216.6250864581617 L 395 216.45174687785416 L 396 216.2775604193112 L 397 216.10253395911587 L 398 215.92667440701317 L 399 215.74998870563707 L 400 215.57248383023656 L 401 215.39416678840016 L 402 215.21504461977938 L 403 215.03512439581067 L 404 214.85441321943648 L 405 214.67291822482457 L 406 214.49064657708658 L 407 214.30760547199506 L 408 214.12380213569944 L 409 213.93924382444067 L 410 213.75393782426488 L 411 213.5678914507357 L 412 213.38111204864535 L 413 213.19360699172483 L 414 213.00538368235271 L 415 212.816449551263 L 416 212.62681205725164 L 417 212.4364786868822 L 418 212.24545695419022 L 419 212.05375440038662 L 420 211.86137859356003 L 421 211.66833712837786 L 422 211.47463762578664 L 423 211.28028773271103 L 424 211.08529512175207 L 425 210.88966749088414 L 426 210.69341256315113 L 427 210.49653808636157 L 428 210.29905183278265 L 429 210.10096159883355 L 430 209.90227520477754 L 431 209.7030004944132 L 432 209.50314533476492 L 433 209.30271761577222 L 434 209.1017252499782 L 435 208.90017617221733 L 436 208.69807833930207 L 437 208.4954397297089 L 438 208.29226834326303 L 439 208.08857220082302 L 440 207.88435934396372 L 441 207.6796378346591 L 442 207.4744157549638 L 443 207.26870120669406 L 444 207.0625023111081 L 445 206.8558272085852 L 446 206.64868405830453 L 447 206.44108103792297 L 448 206.23302634325233 L 449 206.02452818793566 L 450 205.81559480312316 L 451 205.6062344371471 L 452 205.39645535519622 L 453 205.1862658389895 L 454 204.97567418644917 L 455 204.76468871137303 L 456 204.5533177431064 L 457 204.34156962621313 L 458 204.1294527201464 L 459 203.91697539891837 L 460 203.7041460507699 L 461 203.49097307783927 L 462 203.27746489583035 L 463 203.06362993368066 L 464 202.84947663322833 L 465 202.635013448879 L 466 202.42024884727192 L 467 202.20519130694584 L 468 201.98984931800425 L 469 201.7742313817801 L 470 201.55834601050037 L 471 201.3422017269498 L 472 201.12580706413465 L 473 200.90917056494567 L 474 200.6923007818209 L 475 200.47520627640807 L 476 200.2578956192265 L 477 200.04037738932882 L 478 199.82266017396233 L 479 199.60475256822988 L 480 199.38666317475065 L 481 199.16840060332044 L 482 198.94997347057185 L 483 198.7313903996341 L 484 198.51266001979252 L 485 198.293790966148 L 486 198.074791879276 L 487 197.8556714048855 L 488 197.63643819347763 L 489 197.4171009000042 L 490 197.19766818352596 L 491 196.97814870687085 L 492 196.75855113629194 L 493 196.53888414112527 L 494 196.3191563934477 L 495 196.09937656773448 L 496 195.87955334051682 L 497 195.65969539003927 L 498 195.43981139591733 L 499 195.21991003879455 L 500 195 L 501 194.78008996120545 L 502 194.56018860408267 L 503 194.34030460996073 L 504 194.12044665948318 L 505 193.9006234322655 L 506 193.6808436065523 L 507 193.4611158588747 L 508 193.24144886370806 L 509 193.02185129312915 L 510 192.80233181647404 L 511 192.58289909999579 L 512 192.36356180652234 L 513 192.14432859511447 L 514 191.925208120724 L 515 191.706209033852 L 516 191.48733998020748 L 517 191.26860960036592 L 518 191.05002652942815 L 519 190.83159939667956 L 520 190.61333682524935 L 521 190.39524743177012 L 522 190.17733982603767 L 523 189.95962261067118 L 524 189.7421043807735 L 525 189.52479372359193 L 526 189.30769921817907 L 527 189.0908294350543 L 528 188.87419293586532 L 529 188.6577982730502 L 530 188.44165398949963 L 531 188.2257686182199 L 532 188.01015068199575 L 533 187.79480869305416 L 534 187.57975115272808 L 535 187.364986551121 L 536 187.15052336677167 L 537 186.93637006631934 L 538 186.72253510416962 L 539 186.50902692216073 L 540 186.29585394923006 L 541 186.0830246010816 L 542 185.8705472798536 L 543 185.65843037378687 L 544 185.4466822568936 L 545 185.23531128862697 L 546 185.02432581355083 L 547 184.81373416101047 L 548 184.60354464480378 L 549 184.3937655628529 L 550 184.18440519687684 L 551 183.97547181206434 L 552 183.76697365674767 L 553 183.558918962077 L 554 183.35131594169547 L 555 183.1441727914148 L 556 182.9374976888919 L 557 182.73129879330594 L 558 182.5255842450362 L 559 182.3203621653409 L 560 182.11564065603628 L 561 181.91142779917698 L 562 181.70773165673697 L 563 181.5045602702911 L 564 181.3019216606979 L 565 181.09982382778267 L 566 180.8982747500218 L 567 180.69728238422778 L 568 180.49685466523505 L 569 180.29699950558677 L 570 180.09772479522246 L 571 179.89903840116642 L 572 179.70094816721735 L 573 179.50346191363843 L 574 179.30658743684887 L 575 179.11033250911586 L 576 178.91470487824793 L 577 178.71971226728897 L 578 178.52536237421336 L 579 178.33166287162214 L 580 178.13862140643997 L 581 177.94624559961335 L 582 177.75454304580978 L 583 177.5635213131178 L 584 177.37318794274836 L 585 177.183550448737 L 586 176.99461631764729 L 587 176.80639300827517 L 588 176.61888795135465 L 589 176.4321085492643 L 590 176.24606217573512 L 591 176.06075617555933 L 592 175.8761978643006 L 593 175.69239452800494 L 594 175.50935342291342 L 595 175.32708177517543 L 596 175.14558678056352 L 597 174.96487560418933 L 598 174.78495538022062 L 599 174.60583321159984 L 600 174.42751616976344 L 601 174.25001129436293 L 602 174.07332559298683 L 603 173.89746604088413 L 604 173.7224395806888 L 605 173.5482531221458 L 606 173.37491354183828 L 607 173.20242768291607 L 608 173.03080235482548 L 609 172.86004433304066 L 610 172.69016035879585 L 611 172.52115713881955 L 612 172.35304134506944 L 613 172.18581961446924 L 614 172.0194985486465 L 615 171.8540847136722 L 616 171.68958463980118 L 617 171.5260048212148 L 618 171.36335171576414 L 619 171.2016317447153 L 620 171.0408512924959 L 621 170.8810167064428 L 622 170.72213429655181 L 623 170.56421033522844 L 624 170.40725105704027 L 625 170.25126265847084 L 626 170.09625129767502 L 627 169.9422230942359 L 628 169.78918412892327 L 629 169.63714044345338 L 630 169.4860980402506 L 631 169.3360628822104 L 632 169.1870408924639 L 633 169.03903795414413 L 634 168.89205991015362 L 635 168.74611256293392 L 636 168.60120167423636 L 637 168.45733296489473 L 638 168.31451211459932 L 639 168.17274476167276 L 640 168.03203650284738 L 641 167.89239289304433 L 642 167.75381944515416 L 643 167.61632162981942 L 644 167.47990487521832 L 645 167.34457456685084 L 646 167.21033604732577 L 647 167.07719461615002 L 648 166.94515552951933 L 649 166.81422400011073 L 650 166.68440519687684 L 651 166.5557042448417 L 652 166.42812622489856 L 653 166.30167617360917 L 654 166.17635908300502 L 655 166.05217990039034 L 656 165.92914352814657 L 657 165.807254823539 L 658 165.68651859852503 L 659 165.5669396195641 L 660 165.44852260742945 L 661 165.3312722370221 L 662 165.2151931371858 L 663 165.10028989052466 L 664 164.98656703322217 L 665 164.87402905486198 L 666 164.76268039825078 L 667 164.65252545924284 L 668 164.5435685865666 L 669 164.43581408165278 L 670 164.32926619846478 L 671 164.2239291433305 L 672 164.11980707477665 L 673 164.01690410336408 L 674 163.91522429152593 L 675 163.81477165340712 L 676 163.71555015470577 L 677 163.61756371251676 L 678 163.52081619517702 L 679 163.4253114221129 L 680 163.33105316368932 L 681 163.2380451410609 L 682 163.14629102602515 L 683 163.0557944408774 L 684 162.96655895826788 L 685 162.87858810106064 L 686 162.79188534219455 L 687 162.70645410454597 L 688 162.62229776079397 L 689 162.53941963328685 L 690 162.4578229939112 L 691 162.37751106396263 L 692 162.29848701401858 L 693 162.22075396381328 L 694 162.1443149821144 L 695 162.06917308660212 L 696 161.99533124374975 L 697 161.92279236870684 L 698 161.85155932518396 L 699 161.7816349253397 L 700 161.71302192966962 L 701 161.64572304689733 L 702 161.5797409338675 L 703 161.51507819544094 L 704 161.45173738439183 L 705 161.38972100130698 L 706 161.329031494487 L 707 161.26967125984967 L 708 161.2116426408354 L 709 161.15494792831478 L 710 161.0995893604979 L 711 161.0455691228463 L 712 160.99288934798642 L 713 160.94155211562557 L 714 160.8915594524698 L 715 160.84291333214384 L 716 160.79561567511323 L 717 160.74966834860848 L 718 160.70507316655136 L 719 160.6618318894833 L 720 160.6199462244959 L 721 160.57941782516346 L 722 160.5402482914778 L 723 160.50243916978508 L 724 160.4659919527246 L 725 160.4309080791702 L 726 160.39718893417302 L 727 160.3648358489072 L 728 160.3338501006172 L 729 160.30423291256727 L 730 160.27598545399326 L 731 160.24910884005652 L 732 160.2236041317997 L 733 160.19947233610503 L 734 160.17671440565448 L 735 160.1553312388922 L 736 160.13532367998897 L 737 160.11669251880895 L 738 160.09943849087853 L 739 160.08356227735712 L 740 160.0690645050105 L 741 160.05594574618587 L 742 160.0442065187894 L 743 160.03384728626563 L 744 160.02486845757937 L 745 160.0172703871994 L 746 160.0110533750845 L 747 160.0062176666717 L 748 160.00276345286645 L 749 160.0006908700352 L 750 160 L 751 160.0006908700352 L 752 160.00276345286645 L 753 160.0062176666717 L 754 160.0110533750845 L 755 160.0172703871994 L 756 160.02486845757937 L 757 160.03384728626563 L 758 160.0442065187894 L 759 160.05594574618587 L 760 160.0690645050105 L 761 160.08356227735712 L 762 160.09943849087853 L 763 160.11669251880895 L 764 160.13532367998897 L 765 160.1553312388922 L 766 160.17671440565448 L 767 160.19947233610503 L 768 160.2236041317997 L 769 160.24910884005652 L 770 160.27598545399326 L 771 160.30423291256727 L 772 160.3338501006172 L 773 160.3648358489072 L 774 160.39718893417302 L 775 160.4309080791702 L 776 160.4659919527246 L 777 160.50243916978508 L 778 160.5402482914778 L 779 160.57941782516346 L 780 160.6199462244959 L 781 160.66183188948332 L 782 160.70507316655136 L 783 160.74966834860848 L 784 160.79561567511323 L 785 160.84291333214384 L 786 160.8915594524698 L 787 160.94155211562557 L 788 160.99288934798642 L 789 161.0455691228463 L 790 161.09958936049793 L 791 161.15494792831475 L 792 161.2116426408354 L 793 161.26967125984964 L 794 161.329031494487 L 795 161.389721001307 L 796 161.45173738439183 L 797 161.51507819544094 L 798 161.5797409338675 L 799 161.64572304689733 L 800 161.71302192966962 L 801 161.7816349253397 L 802 161.85155932518396 L 803 161.92279236870684 L 804 161.99533124374975 L 805 162.06917308660212 L 806 162.1443149821144 L 807 162.22075396381325 L 808 162.29848701401858 L 809 162.37751106396263 L 810 162.4578229939112 L 811 162.53941963328685 L 812 162.62229776079397 L 813 162.70645410454597 L 814 162.79188534219455 L 815 162.87858810106067 L 816 162.96655895826788 L 817 163.0557944408774 L 818 163.14629102602515 L 819 163.23804514106092 L 820 163.33105316368932 L 821 163.4253114221129 L 822 163.52081619517702 L 823 163.61756371251676 L 824 163.71555015470577 L 825 163.81477165340712 L 826 163.91522429152596 L 827 164.01690410336406 L 828 164.11980707477665 L 829 164.22392914333054 L 830 164.32926619846478 L 831 164.43581408165278 L 832 164.5435685865666 L 833 164.65252545924284 L 834 164.76268039825075 L 835 164.87402905486198 L 836 164.98656703322217 L 837 165.10028989052466 L 838 165.2151931371858 L 839 165.3312722370221 L 840 165.44852260742948 L 841 165.56693961956407 L 842 165.68651859852505 L 843 165.807254823539 L 844 165.92914352814657 L 845 166.05217990039034 L 846 166.17635908300505 L 847 166.30167617360917 L 848 166.42812622489856 L 849 166.5557042448417 L 850 166.68440519687684 L 851 166.81422400011073 L 852 166.94515552951933 L 853 167.07719461615002 L 854 167.21033604732577 L 855 167.34457456685084 L 856 167.47990487521835 L 857 167.61632162981942 L 858 167.7538194451542 L 859 167.8923928930443 L 860 168.03203650284738 L 861 168.17274476167276 L 862 168.31451211459932 L 863 168.45733296489473 L 864 168.6012016742364 L 865 168.74611256293392 L 866 168.89205991015362 L 867 169.03903795414413 L 868 169.1870408924639 L 869 169.3360628822104 L 870 169.4860980402506 L 871 169.63714044345338 L 872 169.78918412892327 L 873 169.9422230942359 L 874 170.09625129767502 L 875 170.25126265847084 L 876 170.4072510570403 L 877 170.56421033522847 L 878 170.72213429655184 L 879 170.8810167064428 L 880 171.04085129249592 L 881 171.20163174471534 L 882 171.36335171576414 L 883 171.5260048212148 L 884 171.68958463980118 L 885 171.8540847136722 L 886 172.0194985486465 L 887 172.18581961446927 L 888 172.35304134506944 L 889 172.52115713881955 L 890 172.69016035879585 L 891 172.86004433304063 L 892 173.03080235482548 L 893 173.20242768291607 L 894 173.3749135418383 L 895 173.5482531221458 L 896 173.7224395806888 L 897 173.89746604088413 L 898 174.07332559298686 L 899 174.25001129436293 L 900 174.42751616976344 L 901 174.60583321159984 L 902 174.78495538022062 L 903 174.96487560418933 L 904 175.14558678056352 L 905 175.32708177517543 L 906 175.50935342291342 L 907 175.69239452800494 L 908 175.8761978643006 L 909 176.06075617555933 L 910 176.24606217573512 L 911 176.4321085492643 L 912 176.61888795135465 L 913 176.80639300827517 L 914 176.99461631764729 L 915 177.183550448737 L 916 177.37318794274836 L 917 177.56352131311783 L 918 177.75454304580978 L 919 177.94624559961338 L 920 178.13862140643997 L 921 178.33166287162214 L 922 178.52536237421336 L 923 178.71971226728897 L 924 178.91470487824793 L 925 179.11033250911586 L 926 179.30658743684887 L 927 179.50346191363843 L 928 179.70094816721735 L 929 179.89903840116642 L 930 180.09772479522246 L 931 180.29699950558677 L 932 180.49685466523505 L 933 180.69728238422778 L 934 180.8982747500218 L 935 181.0998238277827 L 936 181.3019216606979 L 937 181.50456027029114 L 938 181.70773165673697 L 939 181.911427799177 L 940 182.11564065603628 L 941 182.3203621653409 L 942 182.52558424503624 L 943 182.73129879330594 L 944 182.9374976888919 L 945 183.1441727914148 L 946 183.35131594169547 L 947 183.55891896207703 L 948 183.7669736567477 L 949 183.97547181206434 L 950 184.18440519687684 L 951 184.39376556285293 L 952 184.60354464480378 L 953 184.8137341610105 L 954 185.02432581355083 L 955 185.235311288627 L 956 185.4466822568936 L 957 185.65843037378684 L 958 185.8705472798536 L 959 186.0830246010816 L 960 186.2958539492301 L 961 186.50902692216073 L 962 186.72253510416965 L 963 186.93637006631934 L 964 187.15052336677167 L 965 187.364986551121 L 966 187.57975115272808 L 967 187.79480869305416 L 968 188.01015068199575 L 969 188.2257686182199 L 970 188.44165398949963 L 971 188.65779827305022 L 972 188.87419293586535 L 973 189.09082943505433 L 974 189.30769921817907 L 975 189.5247937235919 L 976 189.74210438077353 L 977 189.95962261067118 L 978 190.17733982603767 L 979 190.39524743177012 L 980 190.61333682524938 L 981 190.83159939667956 L 982 191.05002652942815 L 983 191.26860960036592 L 984 191.48733998020748 L 985 191.70620903385202 L 986 191.925208120724 L 987 192.1443285951145 L 988 192.36356180652234 L 989 192.5828990999958 L 990 192.80233181647404 L 991 193.02185129312915 L 992 193.2414488637081 L 993 193.46111585887473 L 994 193.68084360655232 L 995 193.90062343226552 L 996 194.1204466594832 L 997 194.34030460996073 L 998 194.56018860408267 L 999 194.78008996120545 L 1000 195 L 1001 195.21991003879458 L 1002 195.43981139591733 L 1003 195.6596953900393 L 1004 195.87955334051682 L 1005 196.0993765677345 L 1006 196.3191563934477 L 1007 196.5388841411253 L 1008 196.75855113629194 L 1009 196.97814870687085 L 1010 197.197668183526 L 1011 197.4171009000042 L 1012 197.63643819347766 L 1013 197.85567140488553 L 1014 198.07479187927603 L 1015 198.293790966148 L 1016 198.51266001979252 L 1017 198.7313903996341 L 1018 198.94997347057185 L 1019 199.16840060332046 L 1020 199.38666317475065 L 1021 199.6047525682299 L 1022 199.82266017396233 L 1023 200.04037738932885 L 1024 200.2578956192265 L 1025 200.47520627640807 L 1026 200.69230078182093 L 1027 200.90917056494567 L 1028 201.12580706413468 L 1029 201.3422017269498 L 1030 201.55834601050037 L 1031 201.7742313817801 L 1032 201.98984931800427 L 1033 202.20519130694586 L 1034 202.4202488472719 L 1035 202.635013448879 L 1036 202.84947663322833 L 1037 203.0636299336807 L 1038 203.27746489583035 L 1039 203.49097307783927 L 1040 203.7041460507699 L 1041 203.91697539891837 L 1042 204.1294527201464 L 1043 204.34156962621313 L 1044 204.5533177431064 L 1045 204.76468871137303 L 1046 204.97567418644917 L 1047 205.18626583898953 L 1048 205.39645535519625 L 1049 205.6062344371471 L 1050 205.81559480312316 L 1051 206.0245281879357 L 1052 206.23302634325233 L 1053 206.441081037923 L 1054 206.64868405830453 L 1055 206.85582720858523 L 1056 207.0625023111081 L 1057 207.2687012066941 L 1058 207.4744157549638 L 1059 207.6796378346591 L 1060 207.88435934396375 L 1061 208.08857220082302 L 1062 208.29226834326306 L 1063 208.4954397297089 L 1064 208.6980783393021 L 1065 208.90017617221733 L 1066 209.1017252499782 L 1067 209.30271761577222 L 1068 209.50314533476495 L 1069 209.70300049441323 L 1070 209.90227520477754 L 1071 210.10096159883358 L 1072 210.29905183278265 L 1073 210.49653808636157 L 1074 210.69341256315113 L 1075 210.88966749088414 L 1076 211.0852951217521 L 1077 211.28028773271103 L 1078 211.47463762578664 L 1079 211.66833712837786 L 1080 211.86137859356006 L 1081 212.05375440038662 L 1082 212.24545695419022 L 1083 212.4364786868822 L 1084 212.6268120572516 L 1085 212.81644955126302 L 1086 213.00538368235271 L 1087 213.19360699172483 L 1088 213.38111204864535 L 1089 213.56789145073571 L 1090 213.75393782426488 L 1091 213.93924382444067 L 1092 214.12380213569944 L 1093 214.30760547199506 L 1094 214.49064657708658 L 1095 214.67291822482457 L 1096 214.85441321943648 L 1097 215.03512439581067 L 1098 215.21504461977938 L 1099 215.39416678840016 L 1100 215.57248383023656 L 1101 215.74998870563707 L 1102 215.92667440701317 L 1103 216.10253395911587 L 1104 216.2775604193112 L 1105 216.4517468778542 L 1106 216.62508645816172 L 1107 216.79757231708396 L 1108 216.96919764517452 L 1109 217.13995566695934 L 1110 217.30983964120415 L 1111 217.47884286118045 L 1112 217.64695865493056 L 1113 217.81418038553076 L 1114 217.9805014513535 L 1115 218.1459152863278 L 1116 218.31041536019882 L 1117 218.4739951787852 L 1118 218.63664828423586 L 1119 218.7983682552847 L 1120 218.9591487075041 L 1121 219.1189832935572 L 1122 219.27786570344819 L 1123 219.43578966477156 L 1124 219.59274894295973 L 1125 219.74873734152916 L 1126 219.903748702325 L 1127 220.0577769057641 L 1128 220.21081587107676 L 1129 220.36285955654662 L 1130 220.5139019597494 L 1131 220.6639371177896 L 1132 220.8129591075361 L 1133 220.96096204585587 L 1134 221.10794008984638 L 1135 221.25388743706608 L 1136 221.39879832576364 L 1137 221.54266703510527 L 1138 221.68548788540068 L 1139 221.82725523832727 L 1140 221.96796349715262 L 1141 222.1076071069557 L 1142 222.24618055484584 L 1143 222.38367837018058 L 1144 222.52009512478168 L 1145 222.65542543314916 L 1146 222.78966395267423 L 1147 222.92280538384998 L 1148 223.0548444704807 L 1149 223.18577599988927 L 1150 223.31559480312316 L 1151 223.4442957551583 L 1152 223.57187377510144 L 1153 223.69832382639083 L 1154 223.82364091699495 L 1155 223.94782009960966 L 1156 224.07085647185343 L 1157 224.19274517646102 L 1158 224.31348140147497 L 1159 224.4330603804359 L 1160 224.55147739257052 L 1161 224.6687277629779 L 1162 224.7848068628142 L 1163 224.89971010947534 L 1164 225.01343296677783 L 1165 225.12597094513802 L 1166 225.23731960174925 L 1167 225.34747454075716 L 1168 225.4564314134334 L 1169 225.56418591834722 L 1170 225.67073380153522 L 1171 225.7760708566695 L 1172 225.88019292522335 L 1173 225.98309589663594 L 1174 226.08477570847407 L 1175 226.18522834659288 L 1176 226.28444984529423 L 1177 226.38243628748324 L 1178 226.47918380482298 L 1179 226.5746885778871 L 1180 226.66894683631068 L 1181 226.7619548589391 L 1182 226.85370897397485 L 1183 226.9442055591226 L 1184 227.03344104173212 L 1185 227.12141189893936 L 1186 227.20811465780545 L 1187 227.29354589545403 L 1188 227.37770223920603 L 1189 227.46058036671315 L 1190 227.5421770060888 L 1191 227.6224889360374 L 1192 227.70151298598142 L 1193 227.77924603618672 L 1194 227.8556850178856 L 1195 227.93082691339788 L 1196 228.00466875625025 L 1197 228.07720763129316 L 1198 228.14844067481607 L 1199 228.2183650746603 L 1200 228.28697807033038 L 1200 300 Z" fill="#121a2b" fill-opacity="1" stroke="none" />
</svg>